<svg width="25" height="26" viewBox="0 0 25 26" fill="none" xmlns="http://www.w3.org/2000/svg">
<path fill-rule="evenodd" clip-rule="evenodd" d="M3.89297 25.0717C3.89297 25.5845 3.47724 26.0002 2.96438 26.0002C2.45153 26.0002 2.03579 25.5845 2.03574 25.0717V19.5003C2.03448 19.0995 2.29059 18.743 2.6709 18.6163L8.24233 16.7592C8.72951 16.5971 9.2558 16.8607 9.41788 17.3479C9.57996 17.8351 9.31635 18.3613 8.82918 18.5234L4.71563 19.8949C6.65007 22.0082 9.38306 23.212 12.248 23.2125C17.8893 23.2137 22.4632 18.6414 22.4644 13.0003C22.4644 12.4874 22.8801 12.0717 23.3929 12.0717C23.9058 12.0717 24.3215 12.4874 24.3215 13.0003C24.3276 16.1361 23.1107 19.1509 20.9295 21.4039C16.3011 26.1845 8.67363 26.308 3.89297 21.6796V25.0717ZM2.0358 13.0001C2.0358 13.513 1.62007 13.9287 1.10721 13.9287C0.594358 13.9287 0.178623 13.513 0.178732 13.0001C0.172691 9.86425 1.38954 6.84953 3.57077 4.59654C8.19909 -0.184113 15.8266 -0.307566 20.6073 4.3208V0.928701C20.6073 0.415848 21.023 0.000112534 21.5359 0.000112534C22.0487 0.000112534 22.4645 0.415848 22.4645 0.928701V6.50012C22.4657 6.90095 22.2096 7.25743 21.8293 7.3841L16.2579 9.24122C15.7707 9.4033 15.2444 9.13969 15.0823 8.65252C14.9202 8.16535 15.1838 7.63906 15.671 7.47697L19.7846 6.1055C17.8501 3.99222 15.1171 2.78843 12.2521 2.78789C6.6109 2.78675 2.03695 7.35896 2.0358 13.0001Z" fill="#262626"/>
</svg>
